<mxfile host="app.diagrams.net" modified="2023-05-02T04:51:31.404Z" agent="Mozilla/5.0 (Windows NT 10.0; Win64; x64) AppleWebKit/537.36 (KHTML, like Gecko) Chrome/113.0.0.0 Safari/537.36" etag="ZdNC6euNI83QZAotJCSr" version="21.2.3" type="device">
  <diagram id="KUZSuxUdDxb9u6nyLpqZ" name="Halaman-1">
    <mxGraphModel dx="797" dy="467" grid="1" gridSize="10" guides="1" tooltips="1" connect="1" arrows="1" fold="1" page="1" pageScale="1" pageWidth="827" pageHeight="1169" math="0" shadow="0">
      <root>
        <mxCell id="0" />
        <mxCell id="1" parent="0" />
        <mxCell id="O1Sx5-Y3tB51cfPW8-FW-20" value="Interface" style="swimlane;fontStyle=0;childLayout=stackLayout;horizontal=1;startSize=26;horizontalStack=0;resizeParent=1;resizeParentMax=0;resizeLast=0;collapsible=1;marginBottom=0;align=center;fontSize=14;strokeWidth=1;fillColor=default;swimlaneLine=1;glass=0;rounded=0;sketch=0;shadow=0;strokeColor=default;" vertex="1" parent="1">
          <mxGeometry x="334" y="390" width="160" height="60" as="geometry">
            <mxRectangle x="334" y="40" width="130" height="30" as="alternateBounds" />
          </mxGeometry>
        </mxCell>
        <mxCell id="O1Sx5-Y3tB51cfPW8-FW-21" value="+ move() : void" style="text;strokeColor=default;fillColor=none;spacingLeft=4;spacingRight=4;overflow=hidden;rotatable=0;points=[[0,0.5],[1,0.5]];portConstraint=eastwest;fontSize=12;strokeWidth=0;fillStyle=hatch;sketch=0;shadow=0;glass=0;" vertex="1" parent="O1Sx5-Y3tB51cfPW8-FW-20">
          <mxGeometry y="26" width="160" height="34" as="geometry" />
        </mxCell>
        <mxCell id="O1Sx5-Y3tB51cfPW8-FW-39" value="Dog" style="swimlane;fontStyle=0;childLayout=stackLayout;horizontal=1;startSize=26;horizontalStack=0;resizeParent=1;resizeParentMax=0;resizeLast=0;collapsible=1;marginBottom=0;align=center;fontSize=14;strokeWidth=1;fillColor=default;swimlaneLine=1;glass=0;rounded=0;sketch=0;shadow=0;strokeColor=default;" vertex="1" parent="1">
          <mxGeometry x="334" y="40" width="160" height="160" as="geometry">
            <mxRectangle x="334" y="40" width="130" height="30" as="alternateBounds" />
          </mxGeometry>
        </mxCell>
        <mxCell id="O1Sx5-Y3tB51cfPW8-FW-40" value="+ position : int&#xa;+ averageLength : int" style="text;strokeColor=default;fillColor=none;spacingLeft=4;spacingRight=4;overflow=hidden;rotatable=0;points=[[0,0.5],[1,0.5]];portConstraint=eastwest;fontSize=12;strokeWidth=0;fillStyle=hatch;sketch=0;shadow=0;glass=0;" vertex="1" parent="O1Sx5-Y3tB51cfPW8-FW-39">
          <mxGeometry y="26" width="160" height="44" as="geometry" />
        </mxCell>
        <mxCell id="O1Sx5-Y3tB51cfPW8-FW-49" value="+ abstract describe() : void&#xa;+ getPosition() : int&#xa;+ setPosition() : void&#xa;+ getAverageLength() : int&#xa;+ setAverageLength() : void" style="text;strokeColor=default;fillColor=none;spacingLeft=4;spacingRight=4;overflow=hidden;rotatable=0;points=[[0,0.5],[1,0.5]];portConstraint=eastwest;fontSize=12;strokeWidth=0;fillStyle=hatch;sketch=0;shadow=0;glass=0;" vertex="1" parent="O1Sx5-Y3tB51cfPW8-FW-39">
          <mxGeometry y="70" width="160" height="90" as="geometry" />
        </mxCell>
        <mxCell id="O1Sx5-Y3tB51cfPW8-FW-80" style="edgeStyle=orthogonalEdgeStyle;rounded=0;orthogonalLoop=1;jettySize=auto;html=1;" edge="1" parent="1" source="O1Sx5-Y3tB51cfPW8-FW-51" target="O1Sx5-Y3tB51cfPW8-FW-39">
          <mxGeometry relative="1" as="geometry">
            <Array as="points">
              <mxPoint x="119" y="230" />
              <mxPoint x="414" y="230" />
            </Array>
          </mxGeometry>
        </mxCell>
        <mxCell id="O1Sx5-Y3tB51cfPW8-FW-84" style="edgeStyle=orthogonalEdgeStyle;rounded=0;orthogonalLoop=1;jettySize=auto;html=1;fillColor=#ffe6cc;strokeColor=#d79b00;" edge="1" parent="1" source="O1Sx5-Y3tB51cfPW8-FW-51" target="O1Sx5-Y3tB51cfPW8-FW-20">
          <mxGeometry relative="1" as="geometry">
            <Array as="points">
              <mxPoint x="119" y="350" />
              <mxPoint x="414" y="350" />
            </Array>
          </mxGeometry>
        </mxCell>
        <mxCell id="O1Sx5-Y3tB51cfPW8-FW-51" value="Bulldog" style="swimlane;fontStyle=0;childLayout=stackLayout;horizontal=1;startSize=26;horizontalStack=0;resizeParent=1;resizeParentMax=0;resizeLast=0;collapsible=1;marginBottom=0;align=center;fontSize=14;rounded=0;shadow=0;glass=0;sketch=0;fillStyle=auto;strokeColor=default;strokeWidth=1;fillColor=default;swimlaneLine=1;" vertex="1" parent="1">
          <mxGeometry x="39" y="260" width="160" height="56" as="geometry" />
        </mxCell>
        <mxCell id="O1Sx5-Y3tB51cfPW8-FW-52" value="" style="text;strokeColor=default;fillColor=none;spacingLeft=4;spacingRight=4;overflow=hidden;rotatable=0;points=[[0,0.5],[1,0.5]];portConstraint=eastwest;fontSize=12;rounded=0;shadow=0;glass=0;sketch=0;fillStyle=auto;strokeWidth=0;" vertex="1" parent="O1Sx5-Y3tB51cfPW8-FW-51">
          <mxGeometry y="26" width="160" height="30" as="geometry" />
        </mxCell>
        <mxCell id="O1Sx5-Y3tB51cfPW8-FW-81" style="edgeStyle=orthogonalEdgeStyle;rounded=0;orthogonalLoop=1;jettySize=auto;html=1;" edge="1" parent="1" source="O1Sx5-Y3tB51cfPW8-FW-53" target="O1Sx5-Y3tB51cfPW8-FW-39">
          <mxGeometry relative="1" as="geometry" />
        </mxCell>
        <mxCell id="O1Sx5-Y3tB51cfPW8-FW-85" style="edgeStyle=orthogonalEdgeStyle;rounded=0;orthogonalLoop=1;jettySize=auto;html=1;fillColor=#ffe6cc;strokeColor=#d79b00;" edge="1" parent="1" source="O1Sx5-Y3tB51cfPW8-FW-53" target="O1Sx5-Y3tB51cfPW8-FW-20">
          <mxGeometry relative="1" as="geometry">
            <Array as="points">
              <mxPoint x="313" y="350" />
              <mxPoint x="414" y="350" />
            </Array>
          </mxGeometry>
        </mxCell>
        <mxCell id="O1Sx5-Y3tB51cfPW8-FW-53" value="GermanShepherd" style="swimlane;fontStyle=0;childLayout=stackLayout;horizontal=1;startSize=26;horizontalStack=0;resizeParent=1;resizeParentMax=0;resizeLast=0;collapsible=1;marginBottom=0;align=center;fontSize=14;rounded=0;shadow=0;glass=0;sketch=0;fillStyle=auto;strokeColor=default;strokeWidth=1;fillColor=default;swimlaneLine=1;" vertex="1" parent="1">
          <mxGeometry x="233" y="260" width="160" height="56" as="geometry" />
        </mxCell>
        <mxCell id="O1Sx5-Y3tB51cfPW8-FW-54" value="" style="text;strokeColor=default;fillColor=none;spacingLeft=4;spacingRight=4;overflow=hidden;rotatable=0;points=[[0,0.5],[1,0.5]];portConstraint=eastwest;fontSize=12;rounded=0;shadow=0;glass=0;sketch=0;fillStyle=auto;strokeWidth=0;" vertex="1" parent="O1Sx5-Y3tB51cfPW8-FW-53">
          <mxGeometry y="26" width="160" height="30" as="geometry" />
        </mxCell>
        <mxCell id="O1Sx5-Y3tB51cfPW8-FW-82" style="edgeStyle=orthogonalEdgeStyle;rounded=0;orthogonalLoop=1;jettySize=auto;html=1;" edge="1" parent="1" source="O1Sx5-Y3tB51cfPW8-FW-55" target="O1Sx5-Y3tB51cfPW8-FW-39">
          <mxGeometry relative="1" as="geometry" />
        </mxCell>
        <mxCell id="O1Sx5-Y3tB51cfPW8-FW-86" style="edgeStyle=orthogonalEdgeStyle;rounded=0;orthogonalLoop=1;jettySize=auto;html=1;fillColor=#ffe6cc;strokeColor=#d79b00;" edge="1" parent="1" source="O1Sx5-Y3tB51cfPW8-FW-55" target="O1Sx5-Y3tB51cfPW8-FW-20">
          <mxGeometry relative="1" as="geometry">
            <Array as="points">
              <mxPoint x="513" y="350" />
              <mxPoint x="414" y="350" />
            </Array>
          </mxGeometry>
        </mxCell>
        <mxCell id="O1Sx5-Y3tB51cfPW8-FW-55" value="Pitbull" style="swimlane;fontStyle=0;childLayout=stackLayout;horizontal=1;startSize=26;horizontalStack=0;resizeParent=1;resizeParentMax=0;resizeLast=0;collapsible=1;marginBottom=0;align=center;fontSize=14;rounded=0;shadow=0;glass=0;sketch=0;fillStyle=auto;strokeColor=default;strokeWidth=1;fillColor=default;swimlaneLine=1;" vertex="1" parent="1">
          <mxGeometry x="433" y="260" width="160" height="56" as="geometry" />
        </mxCell>
        <mxCell id="O1Sx5-Y3tB51cfPW8-FW-56" value="" style="text;strokeColor=default;fillColor=none;spacingLeft=4;spacingRight=4;overflow=hidden;rotatable=0;points=[[0,0.5],[1,0.5]];portConstraint=eastwest;fontSize=12;rounded=0;shadow=0;glass=0;sketch=0;fillStyle=auto;strokeWidth=0;" vertex="1" parent="O1Sx5-Y3tB51cfPW8-FW-55">
          <mxGeometry y="26" width="160" height="30" as="geometry" />
        </mxCell>
        <mxCell id="O1Sx5-Y3tB51cfPW8-FW-83" style="edgeStyle=orthogonalEdgeStyle;rounded=0;orthogonalLoop=1;jettySize=auto;html=1;" edge="1" parent="1" source="O1Sx5-Y3tB51cfPW8-FW-57" target="O1Sx5-Y3tB51cfPW8-FW-39">
          <mxGeometry relative="1" as="geometry">
            <Array as="points">
              <mxPoint x="709" y="230" />
              <mxPoint x="414" y="230" />
            </Array>
          </mxGeometry>
        </mxCell>
        <mxCell id="O1Sx5-Y3tB51cfPW8-FW-87" style="edgeStyle=orthogonalEdgeStyle;rounded=0;orthogonalLoop=1;jettySize=auto;html=1;fillColor=#ffe6cc;strokeColor=#d79b00;" edge="1" parent="1" source="O1Sx5-Y3tB51cfPW8-FW-57" target="O1Sx5-Y3tB51cfPW8-FW-20">
          <mxGeometry relative="1" as="geometry">
            <Array as="points">
              <mxPoint x="709" y="350" />
              <mxPoint x="414" y="350" />
            </Array>
          </mxGeometry>
        </mxCell>
        <mxCell id="O1Sx5-Y3tB51cfPW8-FW-57" value="SiberianHusky" style="swimlane;fontStyle=0;childLayout=stackLayout;horizontal=1;startSize=26;horizontalStack=0;resizeParent=1;resizeParentMax=0;resizeLast=0;collapsible=1;marginBottom=0;align=center;fontSize=14;rounded=0;shadow=0;glass=0;sketch=0;fillStyle=auto;strokeColor=default;strokeWidth=1;fillColor=default;swimlaneLine=1;" vertex="1" parent="1">
          <mxGeometry x="629" y="260" width="160" height="56" as="geometry" />
        </mxCell>
        <mxCell id="O1Sx5-Y3tB51cfPW8-FW-58" value="" style="text;strokeColor=default;fillColor=none;spacingLeft=4;spacingRight=4;overflow=hidden;rotatable=0;points=[[0,0.5],[1,0.5]];portConstraint=eastwest;fontSize=12;rounded=0;shadow=0;glass=0;sketch=0;fillStyle=auto;strokeWidth=0;" vertex="1" parent="O1Sx5-Y3tB51cfPW8-FW-57">
          <mxGeometry y="26" width="160" height="30" as="geometry" />
        </mxCell>
        <mxCell id="O1Sx5-Y3tB51cfPW8-FW-88" style="edgeStyle=orthogonalEdgeStyle;rounded=0;orthogonalLoop=1;jettySize=auto;html=1;fillColor=#ffe6cc;strokeColor=#d79b00;" edge="1" parent="1" source="O1Sx5-Y3tB51cfPW8-FW-59" target="O1Sx5-Y3tB51cfPW8-FW-20">
          <mxGeometry relative="1" as="geometry">
            <Array as="points">
              <mxPoint x="304" y="490" />
              <mxPoint x="414" y="490" />
            </Array>
          </mxGeometry>
        </mxCell>
        <mxCell id="O1Sx5-Y3tB51cfPW8-FW-59" value="SmartPhone" style="swimlane;fontStyle=0;childLayout=stackLayout;horizontal=1;startSize=26;horizontalStack=0;resizeParent=1;resizeParentMax=0;resizeLast=0;collapsible=1;marginBottom=0;align=center;fontSize=14;rounded=0;shadow=0;glass=0;sketch=0;fillStyle=auto;strokeColor=default;strokeWidth=1;fillColor=default;swimlaneLine=1;" vertex="1" parent="1">
          <mxGeometry x="224" y="520" width="160" height="150" as="geometry" />
        </mxCell>
        <mxCell id="O1Sx5-Y3tB51cfPW8-FW-60" value="+ price : int&#xa;+ brand : String" style="text;strokeColor=default;fillColor=none;spacingLeft=4;spacingRight=4;overflow=hidden;rotatable=0;points=[[0,0.5],[1,0.5]];portConstraint=eastwest;fontSize=12;rounded=0;shadow=0;glass=0;sketch=0;fillStyle=auto;strokeWidth=0;" vertex="1" parent="O1Sx5-Y3tB51cfPW8-FW-59">
          <mxGeometry y="26" width="160" height="44" as="geometry" />
        </mxCell>
        <mxCell id="O1Sx5-Y3tB51cfPW8-FW-67" value="+ getPrice() : int&#xa;+ setPrice() : void&#xa;+ getBrand() : String&#xa;+ setBrand() : void" style="text;strokeColor=default;fillColor=none;spacingLeft=4;spacingRight=4;overflow=hidden;rotatable=0;points=[[0,0.5],[1,0.5]];portConstraint=eastwest;fontSize=12;rounded=0;shadow=0;glass=0;sketch=0;fillStyle=auto;strokeWidth=0;" vertex="1" parent="O1Sx5-Y3tB51cfPW8-FW-59">
          <mxGeometry y="70" width="160" height="80" as="geometry" />
        </mxCell>
        <mxCell id="O1Sx5-Y3tB51cfPW8-FW-89" style="edgeStyle=orthogonalEdgeStyle;rounded=0;orthogonalLoop=1;jettySize=auto;html=1;fillColor=#ffe6cc;strokeColor=#d79b00;" edge="1" parent="1" source="O1Sx5-Y3tB51cfPW8-FW-61" target="O1Sx5-Y3tB51cfPW8-FW-20">
          <mxGeometry relative="1" as="geometry">
            <Array as="points">
              <mxPoint x="532" y="490" />
              <mxPoint x="414" y="490" />
            </Array>
          </mxGeometry>
        </mxCell>
        <mxCell id="O1Sx5-Y3tB51cfPW8-FW-61" value="Car" style="swimlane;fontStyle=0;childLayout=stackLayout;horizontal=1;startSize=26;horizontalStack=0;resizeParent=1;resizeParentMax=0;resizeLast=0;collapsible=1;marginBottom=0;align=center;fontSize=14;rounded=0;shadow=0;glass=0;sketch=0;fillStyle=auto;strokeColor=default;strokeWidth=1;fillColor=default;swimlaneLine=1;" vertex="1" parent="1">
          <mxGeometry x="444" y="520" width="176" height="190" as="geometry" />
        </mxCell>
        <mxCell id="O1Sx5-Y3tB51cfPW8-FW-62" value="+ totalForwardGear : int&#xa;+ color : String&#xa;+ maxSpeed : int" style="text;strokeColor=default;fillColor=none;spacingLeft=4;spacingRight=4;overflow=hidden;rotatable=0;points=[[0,0.5],[1,0.5]];portConstraint=eastwest;fontSize=12;rounded=0;shadow=0;glass=0;sketch=0;fillStyle=auto;strokeWidth=0;" vertex="1" parent="O1Sx5-Y3tB51cfPW8-FW-61">
          <mxGeometry y="26" width="176" height="64" as="geometry" />
        </mxCell>
        <mxCell id="O1Sx5-Y3tB51cfPW8-FW-68" value="+ getTotalForwardGear() : int&#xa;+ setTotalForwardGear() : void&#xa;+ getColor() : String&#xa;+ setColor() : void&#xa;+ getMaxSpeed() : int&#xa;+ setMaxSpeed() : void" style="text;strokeColor=default;fillColor=none;spacingLeft=4;spacingRight=4;overflow=hidden;rotatable=0;points=[[0,0.5],[1,0.5]];portConstraint=eastwest;fontSize=12;rounded=0;shadow=0;glass=0;sketch=0;fillStyle=auto;strokeWidth=0;" vertex="1" parent="O1Sx5-Y3tB51cfPW8-FW-61">
          <mxGeometry y="90" width="176" height="100" as="geometry" />
        </mxCell>
      </root>
    </mxGraphModel>
  </diagram>
</mxfile>
